<?xml version="1.0" encoding="iso-8859-1"?>
<!-- Uploaded to: SVG Repo, www.svgrepo.com, Generator: SVG Repo Mixer Tools -->
<svg height="800px" width="800px" version="1.1" id="Layer_1" xmlns="http://www.w3.org/2000/svg" xmlns:xlink="http://www.w3.org/1999/xlink" 
	 viewBox="0 0 508.008 508.008" xml:space="preserve">
<g>
	<g>
		<path style="fill:#E8EDEE;" d="M16.489,66.441c-2.222,0-4.443-0.85-6.135-2.543c-3.393-3.393-3.393-8.878,0-12.271L59.436,2.545
			c3.393-3.393,8.886-3.393,12.271,0c3.393,3.384,3.393,8.878,0,12.271L22.624,63.898C20.932,65.59,18.711,66.441,16.489,66.441"/>
		<path style="fill:#E8EDEE;" d="M34.896,82.788c-2.282,0-4.556-0.903-6.265-2.681c-3.315-3.454-3.202-8.947,0.269-12.262
			l49.091-47.026c3.445-3.324,8.938-3.202,12.262,0.269c3.324,3.454,3.202,8.947-0.26,12.262l-49.1,47.026
			C39.218,81.99,37.057,82.788,34.896,82.788"/>
		<path style="fill:#E8EDEE;" d="M53.303,100.144c-2.317,0-4.625-0.92-6.326-2.742c-3.28-3.506-3.107-8.999,0.391-12.262
			l49.1-45.976c3.497-3.263,8.999-3.098,12.262,0.399c3.28,3.497,3.098,8.99-0.399,12.262L59.238,97.792
			C57.555,99.363,55.429,100.144,53.303,100.144"/>
		<path style="fill:#E8EDEE;" d="M77.066,116.322c-2.222,0-4.443-0.85-6.135-2.543c-3.393-3.393-3.393-8.878,0-12.271l43.737-43.746
			c3.393-3.393,8.878-3.393,12.271,0c3.393,3.393,3.393,8.878,0,12.271L83.201,113.78C81.509,115.472,79.287,116.322,77.066,116.322
			"/>
		<path style="fill:#E8EDEE;" d="M95.472,134.729c-2.222,0-4.443-0.85-6.135-2.543c-3.393-3.393-3.393-8.878,0-12.271l43.737-43.737
			c3.393-3.393,8.878-3.393,12.271,0c3.393,3.393,3.393,8.878,0,12.271l-43.737,43.737
			C99.916,133.879,97.694,134.729,95.472,134.729"/>
		<path style="fill:#E8EDEE;" d="M113.878,153.135c-2.222,0-4.443-0.85-6.135-2.543c-3.393-3.393-3.393-8.878,0-12.271
			l43.737-43.737c3.393-3.393,8.878-3.393,12.271,0c3.393,3.393,3.393,8.878,0,12.271l-43.737,43.737
			C118.322,152.285,116.1,153.135,113.878,153.135"/>
	</g>
	<g>
		<path style="fill:#A485BE;" d="M494.153,453.74L333.741,293.328l-40.708,49.213l156.16,156.16c12.418,12.41,32.542,12.41,44.961,0
			l0,0C506.571,486.282,506.571,466.158,494.153,453.74"/>
		<path style="fill:#A485BE;" d="M226.415,186.002c-4.747-4.747-11.602-6.708-18.137-5.198l-42.887,9.893
			c-0.547,0.121-0.998,0.373-1.493,0.564L19.315,48.326c-3.41-3.384-8.904-3.35-12.271,0.061c-3.367,3.41-3.332,8.912,0.069,12.271
			l177.838,175.824c1.701,1.675,3.905,2.508,6.109,2.508c2.23,0,4.469-0.85,6.161-2.577c3.376-3.402,3.341-8.904-0.061-12.271
			l-1.883-1.857l36.899-30.52L226.415,186.002z"/>
	</g>
	<path style="fill:#434C6D;" d="M381.766,82.116l61.622,61.622l51.4-82.206l-30.815-30.815L381.766,82.116z"/>
	<path style="fill:#25AE88;" d="M17.595,369.258l138.657,138.657l294.843-356.474l-77.026-77.026L17.595,369.258z"/>
	<path style="fill:#F86363;" d="M460.735,119.661c-2.222,0-4.443-0.85-6.135-2.543l-46.21-46.21c-3.393-3.393-3.393-8.886,0-12.271
		c3.384-3.393,8.878-3.393,12.271,0l46.21,46.21c3.393,3.393,3.393,8.878,0,12.271C465.178,118.81,462.957,119.661,460.735,119.661"
		/>
	<path style="fill:#434C6D;" d="M246.1,180.255l61.622,61.622l-91.848,91.856l-70.318-70.318L246.1,180.255z"/>
	<g>
		<path style="fill:#E8EDEE;" d="M188.497,468.923l11.108-13.433L70.017,325.901l-13.433,11.108L188.497,468.923z"/>
		<path style="fill:#E8EDEE;" d="M139.275,490.939l41.75-41.75c3.384-3.393,3.384-8.886,0-12.271c-3.393-3.393-8.886-3.393-12.271,0
			l-41.75,41.75L139.275,490.939z"/>
		<path style="fill:#E8EDEE;" d="M116.166,467.829l41.75-41.75c3.384-3.393,3.384-8.886,0-12.271c-3.393-3.393-8.886-3.393-12.271,0
			l-41.75,41.75L116.166,467.829z"/>
		<path style="fill:#E8EDEE;" d="M122.54,390.695l-41.758,41.758l12.279,12.271l41.75-41.758c3.393-3.393,3.393-8.878,0-12.271
			S125.933,387.302,122.54,390.695"/>
		<path style="fill:#E8EDEE;" d="M99.43,367.593l-41.75,41.75l12.271,12.271l41.75-41.75c3.393-3.393,3.393-8.878,0-12.271
			C108.307,364.2,102.823,364.2,99.43,367.593"/>
		<path style="fill:#E8EDEE;" d="M76.319,344.484l-41.75,41.75l12.271,12.271l41.75-41.75c3.393-3.393,3.393-8.878,0-12.271
			S79.712,341.091,76.319,344.484"/>
	</g>
	<g>
		<path style="fill:#3E465B;" d="M432.328,490.517c-1.198,0-2.412-0.243-3.584-0.781c-4.365-1.979-6.292-7.125-4.304-11.49
			l28.099-61.813c1.979-4.348,7.09-6.326,11.49-4.304c4.365,1.979,6.292,7.125,4.304,11.49l-28.099,61.813
			C438.784,488.625,435.634,490.517,432.328,490.517"/>
		<path style="fill:#3E465B;" d="M398.608,456.796c-1.198,0-2.412-0.243-3.584-0.781c-4.365-1.979-6.292-7.125-4.304-11.49
			l28.099-61.813c1.979-4.348,7.09-6.318,11.49-4.304c4.365,1.979,6.292,7.125,4.304,11.49l-28.099,61.813
			C405.064,454.905,401.914,456.796,398.608,456.796"/>
		<path style="fill:#3E465B;" d="M364.887,423.076c-1.198,0-2.412-0.243-3.584-0.781c-4.365-1.979-6.292-7.125-4.304-11.49
			l28.099-61.813c1.979-4.348,7.09-6.318,11.49-4.304c4.365,1.979,6.292,7.125,4.304,11.49l-28.099,61.813
			C371.343,421.185,368.193,423.076,364.887,423.076"/>
	</g>
</g>
</svg>